<svg width="25" height="11" viewBox="0 0 25 11" fill="none" xmlns="http://www.w3.org/2000/svg">
<path d="M24.0237 7.86525L24.0237 8.90573C24.0236 9.22399 23.8972 9.52919 23.6722 9.75423C23.4471 9.97927 23.1419 10.1057 22.8237 10.1058L18.4343 10.1058C18.116 10.1057 17.8108 9.97927 17.5858 9.75423C17.3607 9.52919 17.2343 9.22399 17.2343 8.90573L17.2343 5.86237C17.2343 5.61508 17.1565 5.37406 17.0117 5.17357C16.867 4.97307 16.6627 4.82328 16.428 4.7455C13.6459 3.81885 10.6384 3.81885 7.85633 4.7455C7.62162 4.82347 7.41746 4.97345 7.27287 5.1741C7.12828 5.37476 7.05062 5.61589 7.05093 5.86322L7.05009 8.90573C7.05004 9.22399 6.92359 9.52919 6.69855 9.75423C6.47351 9.97927 6.1683 10.1057 5.85005 10.1058L1.46067 10.1058C1.14242 10.1057 0.837214 9.97927 0.612174 9.75423C0.387134 9.52919 0.260687 9.22399 0.26064 8.90573V7.86525C0.260428 6.13168 0.885581 4.45621 2.02132 3.14649C3.15705 1.83677 4.72714 0.980706 6.44328 0.735485L8.23824 0.480031C10.8277 0.110106 13.4566 0.110108 16.0461 0.480033L17.8411 0.735486C19.5572 0.980708 21.1273 1.83677 22.263 3.14649C23.3988 4.45621 24.0239 6.13168 24.0237 7.86525Z" fill="white"/>
</svg>
