<svg width="848" height="215" viewBox="0 0 848 215" fill="none" xmlns="http://www.w3.org/2000/svg">
<path d="M45.9 17.85V136.65H174.6V17.85H220.5V318H174.6V179.85H45.9V318H2.5481e-06V17.85H45.9ZM321.476 17.85H508.676V274.8H542.876V385.5H499.676V318H306.176V385.5H262.976V274.8C273.176 275.1 282.476 271.5 290.876 264C299.276 256.2 305.876 246.3 310.676 234.3C317.876 216 321.476 189.75 321.476 155.55V17.85ZM367.376 61.05V155.55C367.376 193.05 363.926 220.95 357.026 239.25C351.626 253.05 343.826 264.9 333.626 274.8H462.776V61.05H367.376ZM798.086 318L766.586 245.55H638.336L605.486 318H555.986L705.386 0.299986L847.586 318H798.086ZM657.236 202.35H748.136L703.586 100.65L657.236 202.35Z" fill="#3D6099" fill-opacity="0.3"/>
</svg>
