<svg width="35" height="35" viewBox="0 0 35 35" fill="none" xmlns="http://www.w3.org/2000/svg">
<rect width="35" height="35" rx="3" fill="#2AB200"/>
<path d="M25.5317 19.1127L25.5317 19.838C25.5316 20.0598 25.4435 20.2726 25.2866 20.4295C25.1297 20.5863 24.917 20.6745 24.6952 20.6745L21.6355 20.6745C21.4137 20.6745 21.2009 20.5863 21.0441 20.4295C20.8872 20.2726 20.7991 20.0598 20.799 19.838V17.7166C20.7991 17.5442 20.7448 17.3762 20.6439 17.2365C20.543 17.0967 20.4006 16.9923 20.237 16.9381C18.2978 16.2922 16.2014 16.2922 14.2621 16.9381C14.0985 16.9924 13.9562 17.097 13.8554 17.2368C13.7546 17.3767 13.7005 17.5448 13.7007 17.7172L13.7001 19.838C13.7001 20.0598 13.6119 20.2726 13.455 20.4295C13.2982 20.5863 13.0854 20.6745 12.8636 20.6745L9.80396 20.6745C9.58212 20.6745 9.36937 20.5863 9.2125 20.4295C9.05564 20.2726 8.9675 20.0598 8.96746 19.838V19.1127C8.96732 17.9043 9.40308 16.7364 10.1948 15.8235C10.9864 14.9105 12.0809 14.3138 13.2771 14.1429L14.5283 13.9648C16.3333 13.707 18.1658 13.707 19.9708 13.9648L21.222 14.1429C22.4182 14.3138 23.5127 14.9105 24.3044 15.8235C25.096 16.7364 25.5318 17.9043 25.5317 19.1127Z" fill="white"/>
</svg>
