<svg width="35" height="35" viewBox="0 0 35 35" fill="none" xmlns="http://www.w3.org/2000/svg">
<rect width="35" height="35" rx="3" fill="#005FF9"/>
<path fill-rule="evenodd" clip-rule="evenodd" d="M11 14.9199V18.6704L14.1616 16.4121L11 14.9199ZM13 22.3584C11.9463 22.3584 11.083 21.5436 11.0056 20.5097L15.7155 17.1455L16.2313 17.389C17.0345 17.7681 17.9653 17.7681 18.7686 17.389L19.2845 17.1455L23.9944 20.5097C23.917 21.5436 23.0537 22.3584 22 22.3584H13ZM24 18.6704V14.9198L20.8384 16.4121L24 18.6704ZM16.8715 16.0325L11.4386 13.4682C11.564 12.7824 12.1647 12.2625 12.8867 12.2625H22.1131C22.8352 12.2625 23.4358 12.7824 23.5612 13.4682L18.1283 16.0325C17.7304 16.2203 17.2694 16.2203 16.8715 16.0325Z" fill="white"/>
</svg>
