<svg width="14" height="14" viewBox="0 0 14 14" fill="none" xmlns="http://www.w3.org/2000/svg">
<path d="M13.8725 13.2528L9.63558 8.97443C10.4253 8.02519 10.9012 6.80396 10.9012 5.47048C10.9012 2.44924 8.46087 0 5.4506 0C2.44034 0 0 2.44924 0 5.47048C0 8.49171 2.44034 10.941 5.4506 10.941C6.81827 10.941 8.06755 10.4342 9.02468 9.59872L13.2557 13.8718C13.4259 14.0427 13.7022 14.0427 13.8725 13.8718C14.0425 13.7009 14.0425 13.4239 13.8725 13.2528H13.8725ZM5.4506 10.0729C2.91804 10.0729 0.864902 8.01228 0.864902 5.47048C0.864902 2.92867 2.91804 0.868055 5.4506 0.868055C7.98317 0.868055 10.0363 2.92867 10.0363 5.47048C10.0363 8.01228 7.98317 10.0729 5.4506 10.0729Z" fill="white"/>
</svg>
