<svg width="16" height="15" viewBox="0 0 16 15" fill="none" xmlns="http://www.w3.org/2000/svg">
<path d="M5.59576 2.85045L4.19775 0.471134C3.9245 0.00608452 3.33155 -0.152804 2.88791 0.153989C2.01503 0.757622 0.714107 1.8166 0.390481 2.9488C-0.11189 4.70635 1.6991 8.89193 4.16126 11.3541C6.62349 13.8164 10.5956 15.4137 12.3532 14.9115C13.4853 14.5881 14.5445 13.2876 15.1484 12.4149C15.4554 11.9713 15.2966 11.3782 14.8314 11.1049L12.452 9.70685C12.0007 9.44164 11.4209 9.5726 11.1274 10.0061L10.4732 10.972C10.1901 11.39 9.64058 11.5242 9.21766 11.2484C8.5365 10.8043 7.47628 10.0346 6.37184 8.93016C5.26755 7.82587 4.49793 6.76578 4.05376 6.0846C3.77793 5.66158 3.91221 5.11187 4.33046 4.82885L5.29624 4.17533C5.72994 3.88186 5.86104 3.30194 5.59576 2.85045Z" fill="#3391C5"/>
</svg>
