<svg width="15" height="15" viewBox="0 0 15 15" fill="none" xmlns="http://www.w3.org/2000/svg">
<path fill-rule="evenodd" clip-rule="evenodd" d="M6.30637 15C4.94655 15 3.8403 13.9143 3.80713 12.5625H8.80637C10.4978 12.5625 11.8689 11.1914 11.8689 9.49998V3.00073C13.2207 3.0339 14.3064 4.14015 14.3064 5.49997V12.5C14.3064 13.8807 13.1871 15 11.8064 15H6.30637Z" fill="#3391C5"/>
<path fill-rule="evenodd" clip-rule="evenodd" d="M3.3064 0C1.92569 0 0.806396 1.11929 0.806396 2.50001V9.10658C0.806396 10.4873 1.92569 11.6066 3.3064 11.6066H8.42116C9.80187 11.6066 10.9212 10.4873 10.9212 9.10658V2.50001C10.9212 1.11929 9.80187 0 8.42116 0H3.3064ZM6.00649 2.61724C5.9617 2.47882 5.76586 2.47882 5.72107 2.61724L5.08634 4.57866C5.06631 4.64054 5.00867 4.68247 4.94362 4.68247H2.88831C2.74315 4.68247 2.68264 4.86811 2.79991 4.95366L4.46374 6.16739C4.5161 6.20559 4.538 6.2731 4.51805 6.33476L3.88277 8.29787C3.83802 8.43617 3.99645 8.5509 4.11389 8.46523L5.77538 7.2532C5.82805 7.21477 5.89951 7.21477 5.95218 7.2532L7.61368 8.46523C7.73111 8.5509 7.88955 8.43617 7.84479 8.29787L7.20951 6.33476C7.18956 6.2731 7.21146 6.20559 7.26383 6.16739L8.92765 4.95366C9.04492 4.86811 8.98441 4.68247 8.83925 4.68247H6.78394C6.71889 4.68247 6.66125 4.64054 6.64122 4.57866L6.00649 2.61724Z" fill="#3391C5"/>
</svg>
