<svg width="15" height="15" viewBox="0 0 15 15" fill="none" xmlns="http://www.w3.org/2000/svg">
<path fill-rule="evenodd" clip-rule="evenodd" d="M0.907958 1.46243C0 2.56878 0 4.21252 0 7.5C0 10.7875 0 12.4312 0.907958 13.5376C1.07418 13.7401 1.25989 13.9258 1.46243 14.092C2.56878 15 4.21252 15 7.5 15C8.18256 15 8.79426 15 9.345 14.9919C8.5199 14.2591 8 13.1903 8 12C8 9.79086 9.79086 8 12 8C13.1903 8 14.2591 8.5199 14.9919 9.345C15 8.79426 15 8.18256 15 7.5C15 4.21252 15 2.56878 14.092 1.46243C13.9258 1.25989 13.7401 1.07418 13.5376 0.907958C12.4312 0 10.7875 0 7.5 0C4.21252 0 2.56878 0 1.46243 0.907958C1.25989 1.07418 1.07418 1.25989 0.907958 1.46243ZM3 4C3 3.44772 3.44772 3 4 3H11C11.5523 3 12 3.44772 12 4C12 4.55228 11.5523 5 11 5H4C3.44772 5 3 4.55228 3 4ZM4 6C3.44772 6 3 6.44772 3 7C3 7.55228 3.44772 8 4 8H8C8.55228 8 9 7.55228 9 7C9 6.44772 8.55228 6 8 6H4Z" fill="#3391C5"/>
<path fill-rule="evenodd" clip-rule="evenodd" d="M15 12C15 13.6569 13.6569 15 12 15C10.3431 15 9 13.6569 9 12C9 10.3431 10.3431 9 12 9C13.6569 9 15 10.3431 15 12ZM12 13C11.7239 12.9999 11.5001 12.776 11.5002 12.4998L11.5008 10.4145C11.5009 10.1766 11.7248 9.98373 12.001 9.98382C12.2771 9.98391 12.5009 10.1769 12.5008 10.4149L12.5002 12.5002C12.5001 12.7763 12.2761 13.0001 12 13ZM11.499 13.9996C11.4988 14.2757 11.7225 14.4998 11.9986 14.5C12.2748 14.5002 12.4988 14.2765 12.499 14.0004C12.4992 13.7243 12.2756 13.5002 11.9994 13.5C11.7233 13.4998 11.4992 13.7235 11.499 13.9996Z" fill="#3391C5"/>
</svg>
