<svg width="16" height="15" viewBox="0 0 16 15" fill="none" xmlns="http://www.w3.org/2000/svg">
<path d="M6.73663 4.84912L7.15419 6.35963C7.54742 7.78258 7.74363 8.49445 8.32173 8.81796C8.89982 9.14228 9.63359 8.95093 11.1011 8.56986L12.6579 8.16446C14.1254 7.78339 14.8592 7.59285 15.1932 7.03259C15.5273 6.47152 15.331 5.75965 14.937 4.3367L14.5202 2.827C14.127 1.40325 13.93 0.691373 13.3527 0.367866C12.7738 0.0435486 12.04 0.234896 10.5725 0.61678L9.01577 1.02056C7.54823 1.40163 6.81446 1.59298 6.48123 2.15405C6.14718 2.7143 6.34339 3.42618 6.73663 4.84912Z" fill="#3391C5"/>
<path d="M0.82844 2.02514C0.849802 1.94813 0.886132 1.87609 0.935354 1.81313C0.984577 1.75018 1.04572 1.69754 1.1153 1.65824C1.18488 1.61893 1.26152 1.59372 1.34085 1.58406C1.42018 1.57439 1.50063 1.58045 1.57761 1.6019L2.9584 1.9846C3.32423 2.0842 3.65807 2.27677 3.92745 2.54359C4.19682 2.81041 4.39257 3.1424 4.49566 3.50727L6.23968 9.82011L6.36778 10.2636C6.88487 10.4542 7.32061 10.8169 7.60181 11.2909L7.85316 11.2131L15.0449 9.34417C15.1222 9.32405 15.2027 9.31935 15.2818 9.33034C15.3609 9.34133 15.4371 9.36779 15.506 9.40822C15.5749 9.44865 15.6352 9.50226 15.6833 9.56597C15.7315 9.62969 15.7667 9.70227 15.7868 9.77957C15.8069 9.85687 15.8116 9.93738 15.8006 10.0165C15.7896 10.0956 15.7632 10.1718 15.7227 10.2407C15.6823 10.3096 15.6287 10.3698 15.565 10.418C15.5013 10.4662 15.4287 10.5013 15.3514 10.5214L8.1864 12.383L7.91883 12.4657C7.91397 13.4954 7.2029 14.4376 6.12698 14.7165C4.83782 15.0522 3.51217 14.3095 3.16677 13.0592C2.82137 11.809 3.58676 10.5223 4.87592 10.1874C4.94025 10.1712 5.0043 10.1571 5.06808 10.1452L3.32325 3.83077C3.27607 3.66865 3.18784 3.52146 3.06711 3.40342C2.94638 3.28539 2.79722 3.20051 2.63408 3.157L1.25249 2.7735C1.1755 2.75222 1.10345 2.71598 1.04047 2.66685C0.97749 2.61772 0.924806 2.55666 0.885427 2.48716C0.846049 2.41767 0.820748 2.3411 0.81097 2.26182C0.801192 2.18254 0.807128 2.10212 0.82844 2.02514Z" fill="#3391C5"/>
</svg>
