<svg width="14" height="15" viewBox="0 0 14 15" fill="none" xmlns="http://www.w3.org/2000/svg">
<path d="M9.96888 0.0922121L2.58868 3.78231H10.3548C10.8313 3.78231 11.2177 3.39597 11.2177 2.91941V0.864012C11.2177 0.222548 10.5426 -0.194659 9.96888 0.0922121Z" fill="#3391C5"/>
<path fill-rule="evenodd" clip-rule="evenodd" d="M2.5887 4.6452C1.159 4.6452 0 5.8042 0 7.2339V12.4113C0 13.841 1.159 15 2.5887 15H11.2177C12.6474 15 13.8064 13.841 13.8064 12.4113V11.9249C13.5618 12.0955 13.2643 12.1956 12.9435 12.1956H10.3548C9.5208 12.1956 8.84472 11.5195 8.84472 10.6855V8.9597C8.84472 8.12571 9.5208 7.44963 10.3548 7.44963H12.9435C13.2643 7.44963 13.5618 7.54968 13.8064 7.72029V7.2339C13.8064 5.8042 12.6474 4.6452 11.2177 4.6452H2.5887ZM10.1391 8.9597C10.1391 8.84056 10.2357 8.74397 10.3548 8.74397H12.9435C13.0626 8.74397 13.1592 8.84056 13.1592 8.9597V10.6855C13.1592 10.8046 13.0626 10.9012 12.9435 10.9012H10.3548C10.2357 10.9012 10.1391 10.8046 10.1391 10.6855V8.9597Z" fill="#3391C5"/>
</svg>
