<svg width="207" height="207" viewBox="0 0 207 207" fill="none" xmlns="http://www.w3.org/2000/svg">
<circle cx="103.46" cy="103.46" r="98.46" stroke="#DCC073" stroke-width="10"/>
<path d="M95.7727 48H111.227L108.136 126.322H98.8636L95.7727 48ZM95 151.385C95 148.983 95.8242 146.946 97.4727 145.276C99.2242 143.605 101.233 142.769 103.5 142.769C105.87 142.769 107.879 143.605 109.527 145.276C111.176 146.946 112 148.983 112 151.385C112 153.682 111.176 155.718 109.527 157.494C107.879 159.165 105.87 160 103.5 160C101.233 160 99.2242 159.165 97.4727 157.494C95.8242 155.718 95 153.682 95 151.385Z" fill="#DCC073"/>
</svg>
