<svg width="27" height="29" viewBox="0 0 27 29" fill="none" xmlns="http://www.w3.org/2000/svg">
<path d="M21.1973 9.89258H25.5999C26.2903 9.89258 26.8499 10.4522 26.8499 11.1426V24.9755C26.8499 26.011 26.0104 26.8505 24.9749 26.8505H23.0723C22.0367 26.8505 21.1973 26.011 21.1973 24.9755V9.89258Z" fill="white"/>
<path fill-rule="evenodd" clip-rule="evenodd" d="M0 2.5C0 1.11929 1.11929 0 2.5 0H17.2842C18.6649 0 19.7842 1.11929 19.7842 2.5V11.3055H19.7839V26.3884C19.7839 27.414 20.6073 28.2473 21.6292 28.2632H2.5C1.11929 28.2632 0 27.1439 0 25.7632V2.5ZM4.23937 8.89231C3.68708 8.89231 3.23937 9.34002 3.23937 9.89231C3.23937 10.4446 3.68708 10.8923 4.23937 10.8923H15.5446C16.0969 10.8923 16.5446 10.4446 16.5446 9.89231C16.5446 9.34002 16.0969 8.89231 15.5446 8.89231H4.23937ZM3.23937 14.1313C3.23937 13.579 3.68708 13.1313 4.23937 13.1313H15.5446C16.0969 13.1313 16.5446 13.579 16.5446 14.1313C16.5446 14.6836 16.0969 15.1313 15.5446 15.1313H4.23937C3.68708 15.1313 3.23937 14.6836 3.23937 14.1313ZM4.23937 17.3709C3.68708 17.3709 3.23937 17.8186 3.23937 18.3709C3.23937 18.9232 3.68708 19.3709 4.23937 19.3709H15.5446C16.0969 19.3709 16.5446 18.9232 16.5446 18.3709C16.5446 17.8186 16.0969 17.3709 15.5446 17.3709H4.23937Z" fill="white"/>
</svg>
