<svg width="25" height="28" viewBox="0 0 25 28" fill="none" xmlns="http://www.w3.org/2000/svg">
<path fill-rule="evenodd" clip-rule="evenodd" d="M1.75736 1.75736C0 3.51472 0 6.34315 0 12V12.9707C0 18.6276 0 21.456 1.75736 23.2134C3.51472 24.9707 6.34315 24.9707 12 24.9707H12.9707L13.3772 24.9707V20.066C13.3772 16.372 16.3717 13.3774 20.0658 13.3774C21.9997 13.3774 23.742 14.1982 24.9632 15.5105C24.9707 14.7335 24.9707 13.8894 24.9707 12.9707V12C24.9707 6.34315 24.9707 3.51472 23.2134 1.75736C21.456 0 18.6276 0 12.9707 0H12C6.34315 0 3.51472 0 1.75736 1.75736ZM4.45905 5.79702C4.45905 5.05822 5.05796 4.4593 5.79676 4.4593H19.1739C19.9127 4.4593 20.5117 5.05822 20.5117 5.79702C20.5117 6.53582 19.9127 7.13473 19.1739 7.13473H5.79677C5.05796 7.13473 4.45905 6.53582 4.45905 5.79702ZM5.79676 8.91836C5.05796 8.91836 4.45905 9.51727 4.45905 10.2561C4.45905 10.9949 5.05796 11.5938 5.79676 11.5938H13.8231C14.5619 11.5938 15.1608 10.9949 15.1608 10.2561C15.1608 9.51727 14.5619 8.91836 13.8231 8.91836H5.79676Z" fill="#3391C5"/>
<path fill-rule="evenodd" clip-rule="evenodd" d="M15.1811 20.5119C15.1679 20.3651 15.1611 20.2164 15.1611 20.0661C15.1611 17.3572 17.3572 15.1611 20.0661 15.1611C22.775 15.1611 24.9711 17.3572 24.9711 20.0661C24.9711 20.2164 24.9643 20.3651 24.9511 20.5119H24.9712V26.8953C24.9712 27.2337 24.6089 27.4488 24.3118 27.2867L20.4933 25.2039C20.2271 25.0587 19.9054 25.0587 19.6392 25.2039L15.8207 27.2867C15.5236 27.4488 15.1613 27.2337 15.1613 26.8953V20.5119H15.1811ZM21.7023 18.281C21.8853 18.4458 21.9001 18.7277 21.7354 18.9107L20.2944 20.5119L19.9222 20.9255C19.9 20.9501 19.8758 20.9716 19.8501 20.9901C19.6699 21.1192 19.4143 21.0977 19.2593 20.9255L18.8871 20.5119L18.3527 19.9181C18.1879 19.7351 18.2028 19.4531 18.3858 19.2884C18.5689 19.1236 18.8508 19.1385 19.0156 19.3215L19.5907 19.9606L21.0725 18.3142C21.2373 18.1311 21.5192 18.1163 21.7023 18.281Z" fill="#3391C5"/>
</svg>
