<svg width="17" height="18" viewBox="0 0 17 18" fill="none" xmlns="http://www.w3.org/2000/svg">
<path d="M1.79337 0.978425L2.41874 0.316266C2.61005 0.113761 2.86949 0 3.14001 0C3.41052 0 3.66997 0.113761 3.86128 0.316266L6.49947 3.10965C6.69073 3.31221 6.79817 3.58692 6.79817 3.87335C6.79817 4.15977 6.69073 4.43448 6.49947 4.63704L4.67028 6.57383C4.52161 6.73115 4.42355 6.93409 4.39004 7.1538C4.35652 7.3735 4.38926 7.59881 4.48359 7.79769C5.59879 10.1579 7.40641 12.0719 9.63551 13.2527C9.82345 13.3524 10.0363 13.3869 10.2438 13.3512C10.4513 13.3155 10.6429 13.2115 10.7914 13.0539L12.6206 11.1182C12.8119 10.9157 13.0713 10.8019 13.3418 10.8019C13.6124 10.8019 13.8718 10.9157 14.0631 11.1182L16.7013 13.9116C16.8926 14.1142 17 14.3889 17 14.6753C17 14.9617 16.8926 15.2364 16.7013 15.439L16.0759 16.1011C15.0341 17.2045 13.6513 17.8729 12.1815 17.9837C10.7117 18.0944 9.25349 17.64 8.07463 16.7039L6.84225 15.7242C5.06353 14.3116 3.48345 12.6386 2.14941 10.7553L1.22411 9.45039C0.340023 8.20219 -0.0891308 6.65819 0.0154414 5.10191C0.120014 3.54563 0.751293 2.08153 1.79337 0.978425Z" fill="#3391C5"/>
</svg>
