<svg width="80" height="80" viewBox="0 0 80 80" fill="none" xmlns="http://www.w3.org/2000/svg">
<rect x="0.5" y="0.5" width="79" height="79" rx="9.5" fill="#C6DFF1" stroke="#3391C5"/>
<path d="M26 50.2417V36.3861C26 35.2398 26.6956 34.2117 27.7587 33.7873L39.4794 29.1017C39.8119 28.9661 40.1837 28.9661 40.5206 29.1017L52.2412 33.7873C53.3044 34.2117 54 35.2442 54 36.3861V50.2417C54 50.8236 53.5319 51.2917 52.95 51.2917H50.85C50.2681 51.2917 49.8 50.8236 49.8 50.2417V38.6917C49.8 37.9173 49.1744 37.2917 48.4 37.2917H31.6C30.8256 37.2917 30.2 37.9173 30.2 38.6917V50.2417C30.2 50.8236 29.7319 51.2917 29.15 51.2917H27.05C26.4681 51.2917 26 50.8236 26 50.2417ZM47.35 51.2917H32.65C32.0681 51.2917 31.6 50.8236 31.6 50.2417V47.7917H48.4V50.2417C48.4 50.8236 47.9319 51.2917 47.35 51.2917ZM31.6 46.3917V43.5917H48.4V46.3917H31.6ZM31.6 42.1917V38.6917H48.4V42.1917H31.6Z" fill="#3391C5"/>
</svg>
