<svg width="80" height="80" viewBox="0 0 80 80" fill="none" xmlns="http://www.w3.org/2000/svg">
<rect x="0.5" y="0.5" width="79" height="79" rx="9.5" fill="#C6DFF1" stroke="#3391C5"/>
<path d="M47.25 35.45H51.4C52.0904 35.45 52.65 36.0097 52.65 36.7V49.775C52.65 50.8105 51.8105 51.65 50.775 51.65H49.125C48.0895 51.65 47.25 50.8105 47.25 49.775V35.45Z" fill="#3391C5"/>
<path fill-rule="evenodd" clip-rule="evenodd" d="M27 28.5C27 27.1193 28.1193 26 29.5 26H43.4C44.7807 26 45.9 27.1193 45.9 28.5V36.8V49.8692V51.125C45.9 52.1596 46.738 52.9985 47.7723 53H29.5C28.1193 53 27 51.8807 27 50.5V28.5ZM31.05 34.7C30.6358 34.7 30.3 35.0358 30.3 35.45C30.3 35.8642 30.6358 36.2 31.05 36.2H41.85C42.2642 36.2 42.6 35.8642 42.6 35.45C42.6 35.0358 42.2642 34.7 41.85 34.7H31.05ZM30.3 39.5C30.3 39.0858 30.6358 38.75 31.05 38.75H41.85C42.2642 38.75 42.6 39.0858 42.6 39.5C42.6 39.9142 42.2642 40.25 41.85 40.25H31.05C30.6358 40.25 30.3 39.9142 30.3 39.5ZM31.05 42.8C30.6358 42.8 30.3 43.1358 30.3 43.55C30.3 43.9642 30.6358 44.3 31.05 44.3H41.85C42.2642 44.3 42.6 43.9642 42.6 43.55C42.6 43.1358 42.2642 42.8 41.85 42.8H31.05Z" fill="#3391C5"/>
</svg>
