<svg width="80" height="80" viewBox="0 0 80 80" fill="none" xmlns="http://www.w3.org/2000/svg">
<rect x="0.5" y="0.5" width="79" height="79" rx="9.5" fill="#C6DFF1" stroke="#3391C5"/>
<path d="M42.7491 38.4182L36.3855 33.8746C35.4945 33.2382 34.3109 33.2382 33.4327 33.8746L27.0691 38.4182C26.3945 38.9018 26 39.6655 26 40.4927V50.6364C26 51.3364 26.5727 51.9091 27.2727 51.9091H32.3636V44.2727H37.4545V51.9091H42.5455C43.2455 51.9091 43.8182 51.3364 43.8182 50.6364V40.4927C43.8182 39.6655 43.4236 38.9018 42.7491 38.4182Z" fill="#3391C5"/>
<path d="M51.4913 29H39.9604C38.5731 29 37.4531 30.12 37.4531 31.5073L37.5677 31.6218C37.6695 31.6855 37.7713 31.7364 37.8731 31.8L44.2368 36.3436C45.204 37.0309 45.8913 38.0491 46.1968 39.1818H48.9077V41.7273H46.3622V44.2727H48.9077V46.8182H46.3622V51.9091H51.4913C52.8786 51.9091 53.9986 50.7891 53.9986 49.4018V31.5073C53.9986 30.12 52.8786 29 51.4913 29ZM48.9077 36.6364H46.3622V34.0909H48.9077V36.6364Z" fill="#3391C5"/>
</svg>
