<svg width="261" height="160" viewBox="0 0 261 160" fill="none" xmlns="http://www.w3.org/2000/svg">
<rect width="261" height="160" rx="10" fill="white"/>
<path d="M165.858 90.9834C165.39 87.7318 162.88 85.1968 159.65 84.4411C147.092 81.4966 143.944 74.2621 143.413 66.2379C141.186 65.8235 137.225 65.375 130.5 65.375C123.775 65.375 119.814 65.8235 117.587 66.2379C117.056 74.2621 113.908 81.4966 101.35 84.4411C98.1197 85.2016 95.6101 87.7318 95.1423 90.9834L92.7205 107.763C91.8678 113.672 96.2046 119 102.237 119H158.763C164.791 119 169.132 113.672 168.28 107.763L165.858 90.9834ZM130.5 106.773C123.702 106.773 118.191 101.313 118.191 94.586C118.191 87.8585 123.702 82.3985 130.5 82.3985C137.298 82.3985 142.809 87.8585 142.809 94.586C142.809 101.313 137.293 106.773 130.5 106.773ZM178.985 60.5C178.868 53.1875 160.264 41.0049 130.5 41C100.732 41.0049 82.1268 53.1875 82.0148 60.5C81.9027 67.8125 82.1171 77.3285 94.3675 75.7441C108.699 73.8867 107.817 68.8801 107.817 61.7236C107.817 56.7316 119.473 55.5275 130.5 55.5275C141.527 55.5275 153.178 56.7316 153.183 61.7236C153.183 68.8801 152.301 73.8867 166.633 75.7441C178.878 77.3285 179.097 67.8125 178.985 60.5Z" fill="#3391C5"/>
</svg>
