<svg width="19" height="15" viewBox="0 0 19 15" fill="none" xmlns="http://www.w3.org/2000/svg">
<path fill-rule="evenodd" clip-rule="evenodd" d="M0 3.85642V10.072L5.23959 6.32945L0 3.85642ZM0 13V11.9154L6.68699 7.13895L6.55085 6.94835L8.14433 7.70046C8.94761 8.0796 9.87835 8.0796 10.6816 7.70046L12.2741 6.94884L12.1383 7.13895L18.8253 11.9154V13C18.8253 14.1046 17.9298 15 16.8253 15H2C0.895433 15 0 14.1046 0 13ZM18.8253 10.072V3.85674L13.586 6.32965L18.8253 10.072ZM0.264661 1.51629C0.264661 0.703203 0.923797 0.0440674 1.73688 0.0440674H17.0891C17.9022 0.0440674 18.5613 0.703203 18.5613 1.51629V2.32265L10.0414 6.34397C9.64349 6.53176 9.18247 6.53176 8.78458 6.34397L0.264661 2.32265V1.51629Z" fill="#3391C5"/>
</svg>
