<svg width="20" height="16" viewBox="0 0 20 16" fill="none" xmlns="http://www.w3.org/2000/svg">
<path fill-rule="evenodd" clip-rule="evenodd" d="M0 4.04547V10.7583L5.65873 6.71633L0 4.04547ZM0 13.936V12.6016L7.07743 7.54633L6.90461 7.30438L8.73135 8.16658C9.53463 8.54572 10.4654 8.54572 11.2686 8.16658L13.0954 7.30438L12.9226 7.54633L20 12.6016V13.936C20 15.0406 19.1046 15.936 18 15.936H2C0.895431 15.936 0 15.0406 0 13.936ZM20 10.7583V4.04547L14.3413 6.71633L20 10.7583ZM18.6434 0.0417628C18.9484 0.145325 19.2203 0.320484 19.4392 0.547222C19.6436 0.800008 19.766 1.12182 19.766 1.47222V2.49723L10.6284 6.81008C10.2305 6.99788 9.76949 6.99788 9.3716 6.81009L0.234009 2.49723V1.47222C0.234009 1.12182 0.356428 0.800001 0.56083 0.547214C0.779678 0.320481 1.05161 0.145325 1.35661 0.041764C1.46868 0.014469 1.58576 0 1.70623 0H18.2938C18.4142 0 18.5313 0.0144686 18.6434 0.0417628Z" fill="white"/>
</svg>
