<svg width="25" height="11" viewBox="0 0 25 11" fill="none" xmlns="http://www.w3.org/2000/svg">
<path d="M24.13 8.3318L24.13 9.37229C24.13 9.69054 24.0035 9.99575 23.7785 10.2208C23.5534 10.4458 23.2482 10.5723 22.93 10.5723L18.5406 10.5723C18.2224 10.5723 17.9171 10.4458 17.6921 10.2208C17.4671 9.99575 17.3406 9.69054 17.3406 9.37229V6.32892C17.3406 6.08163 17.2628 5.84062 17.118 5.64012C16.9733 5.43962 16.7691 5.28984 16.5343 5.21205C13.7522 4.28541 10.7447 4.28541 7.96265 5.21205C7.72794 5.29003 7.52378 5.44 7.37919 5.64066C7.2346 5.84131 7.15695 6.08244 7.15726 6.32977L7.15641 9.37229C7.15636 9.69054 7.02991 9.99575 6.80487 10.2208C6.57983 10.4458 6.27463 10.5723 5.95637 10.5723L1.567 10.5723C1.24874 10.5723 0.943536 10.4458 0.718497 10.2208C0.493457 9.99575 0.367011 9.69054 0.366963 9.37228V8.3318C0.366751 6.59823 0.991905 4.92277 2.12764 3.61305C3.26338 2.30332 4.83346 1.44726 6.5496 1.20204L8.34456 0.946585C10.934 0.576659 13.5629 0.576661 16.1524 0.946586L17.9474 1.20204C19.6635 1.44726 21.2336 2.30332 22.3693 3.61305C23.5051 4.92277 24.1302 6.59823 24.13 8.3318Z" fill="white"/>
</svg>
