<svg width="261" height="160" viewBox="0 0 261 160" fill="none" xmlns="http://www.w3.org/2000/svg">
<rect width="261" height="160" rx="10" fill="white"/>
<path d="M98.8571 49H163.143C170.234 49 176 54.7264 176 61.7679V100.071C176 107.113 170.234 112.839 163.143 112.839H122.129C124.905 110.466 127.134 107.528 128.665 104.223C130.195 100.918 130.992 97.325 131 93.6875C130.992 90.05 130.195 86.4568 128.665 83.1522C127.134 79.8475 124.905 76.9088 122.129 74.5357H153.5C154.352 74.5357 155.17 74.1994 155.773 73.6008C156.376 73.0022 156.714 72.1903 156.714 71.3438C156.714 70.4972 156.376 69.6853 155.773 69.0867C155.17 68.4881 154.352 68.1518 153.5 68.1518H105.286C101.623 68.1599 98.0045 68.9508 94.6767 70.471C91.3489 71.9911 88.3897 74.2048 86 76.9616V61.7679C86 54.7264 91.7664 49 98.8571 49ZM140.643 93.6875H153.5C154.352 93.6875 155.17 93.3512 155.773 92.7526C156.376 92.154 156.714 91.3421 156.714 90.4956C156.714 89.649 156.376 88.8371 155.773 88.2385C155.17 87.6399 154.352 87.3036 153.5 87.3036H140.643C139.79 87.3036 138.973 87.6399 138.37 88.2385C137.767 88.8371 137.429 89.649 137.429 90.4956C137.429 91.3421 137.767 92.154 138.37 92.7526C138.973 93.3512 139.79 93.6875 140.643 93.6875ZM105.286 112.839C110.401 112.839 115.306 110.822 118.923 107.23C122.54 103.638 124.571 98.7669 124.571 93.6875C124.571 88.6081 122.54 83.7368 118.923 80.1452C115.306 76.5535 110.401 74.5357 105.286 74.5357C100.171 74.5357 95.2654 76.5535 91.6487 80.1452C88.0319 83.7368 86 88.6081 86 93.6875C86 98.7669 88.0319 103.638 91.6487 107.23C95.2654 110.822 100.171 112.839 105.286 112.839ZM92.4286 128.799V115.667C96.3202 117.965 100.758 119.19 105.286 119.217C109.991 119.217 114.344 117.863 118.143 115.667V128.793C118.143 129.371 117.985 129.938 117.686 130.434C117.388 130.929 116.959 131.335 116.446 131.608C115.933 131.881 115.356 132.011 114.775 131.984C114.195 131.957 113.632 131.774 113.148 131.455L105.286 126.246L97.4236 131.448C96.9415 131.775 96.3785 131.964 95.7958 131.995C95.2131 132.027 94.6329 131.899 94.1182 131.626C93.6035 131.353 93.1739 130.945 92.876 130.447C92.5782 129.948 92.4234 129.379 92.4286 128.799Z" fill="#3391C5"/>
</svg>
