<svg width="23" height="22" viewBox="0 0 23 22" fill="none" xmlns="http://www.w3.org/2000/svg">
<path d="M8.93842 7.00383L9.56786 9.2808C10.1606 11.4258 10.4564 12.4989 11.3278 12.9865C12.1993 13.4754 13.3054 13.187 15.5176 12.6125L17.8642 12.0014C20.0764 11.427 21.1825 11.1398 21.686 10.2952C22.1896 9.44947 21.8938 8.37637 21.2998 6.2314L20.6716 3.95565C20.0788 1.80946 19.7818 0.736362 18.9116 0.248702C18.039 -0.24018 16.9329 0.0482602 14.7207 0.623919L12.374 1.23258C10.1618 1.80701 9.05575 2.09545 8.55342 2.94122C8.04988 3.78577 8.34565 4.85886 8.93842 7.00383Z" fill="#3391C5"/>
<path d="M0.0332292 2.74682C0.0654303 2.63074 0.120195 2.52214 0.194394 2.42724C0.268592 2.33234 0.360768 2.253 0.465651 2.19375C0.570535 2.1345 0.686068 2.0965 0.805647 2.08193C0.925226 2.06735 1.0465 2.0765 1.16255 2.10883L3.24396 2.68571C3.79543 2.83585 4.29866 3.12614 4.70473 3.52835C5.11079 3.93056 5.40587 4.431 5.56127 4.98101L8.19023 14.4971L8.38334 15.1656C9.16281 15.4529 9.81965 15.9997 10.2435 16.7142L10.6224 16.5969L21.4634 13.7797C21.5799 13.7493 21.7013 13.7422 21.8205 13.7588C21.9398 13.7754 22.0546 13.8153 22.1585 13.8762C22.2623 13.9372 22.3531 14.018 22.4258 14.114C22.4984 14.2101 22.5514 14.3195 22.5817 14.436C22.612 14.5525 22.6191 14.6739 22.6026 14.7931C22.586 14.9124 22.5461 15.0272 22.4852 15.1311C22.4242 15.2349 22.3434 15.3258 22.2474 15.3984C22.1513 15.471 22.0419 15.524 21.9254 15.5543L11.1247 18.3605L10.7214 18.4852C10.7141 20.0374 9.64221 21.4576 8.02034 21.878C6.07704 22.384 4.07873 21.2645 3.55807 19.3798C3.03741 17.4952 4.19117 15.5555 6.13448 15.0508C6.23144 15.0263 6.328 15.0051 6.42414 14.9872L3.79396 5.46867C3.72283 5.22429 3.58983 5.0024 3.40784 4.82448C3.22584 4.64655 3.00101 4.5186 2.75508 4.45302L0.672443 3.87491C0.556386 3.84284 0.447787 3.78821 0.352849 3.71415C0.25791 3.64009 0.178492 3.54805 0.119133 3.44329C0.0597728 3.33853 0.0216335 3.2231 0.00689396 3.1036C-0.00784556 2.9841 0.00110329 2.86286 0.0332292 2.74682Z" fill="#3391C5"/>
</svg>
