<svg width="28" height="23" viewBox="0 0 28 23" fill="none" xmlns="http://www.w3.org/2000/svg">
<path d="M0 21.2417V7.38609C0 6.23984 0.695625 5.21172 1.75875 4.78734L13.4794 0.101719C13.8119 -0.0339063 14.1837 -0.0339063 14.5206 0.101719L26.2412 4.78734C27.3044 5.21172 28 6.24422 28 7.38609V21.2417C28 21.8236 27.5319 22.2917 26.95 22.2917H24.85C24.2681 22.2917 23.8 21.8236 23.8 21.2417V9.69172C23.8 8.91734 23.1744 8.29172 22.4 8.29172H5.6C4.82562 8.29172 4.2 8.91734 4.2 9.69172V21.2417C4.2 21.8236 3.73187 22.2917 3.15 22.2917H1.05C0.468125 22.2917 0 21.8236 0 21.2417ZM21.35 22.2917H6.65C6.06812 22.2917 5.6 21.8236 5.6 21.2417V18.7917H22.4V21.2417C22.4 21.8236 21.9319 22.2917 21.35 22.2917ZM5.6 17.3917V14.5917H22.4V17.3917H5.6ZM5.6 13.1917V9.69172H22.4V13.1917H5.6Z" fill="#3391C5"/>
</svg>
