<svg width="22" height="18" viewBox="0 0 22 18" fill="none" xmlns="http://www.w3.org/2000/svg">
<path d="M21.2653 7.54655L19.0796 3.92116C18.9197 3.65791 18.6948 3.44009 18.4266 3.28853C18.1585 3.13696 17.8559 3.05673 17.5478 3.05549H15.8318V2.8007C15.8319 2.43275 15.7592 2.06842 15.618 1.72863C15.4768 1.38885 15.2699 1.0803 15.0091 0.820709C14.482 0.295427 13.7682 0.000353851 13.024 6.12216e-05H2.8089C2.25293 -0.00361887 1.70851 0.158688 1.24531 0.466209C0.782118 0.77373 0.421224 1.21247 0.208821 1.72629C0.0682863 2.06692 -0.00268728 2.43223 7.77916e-05 2.8007V11.967C0.000654104 12.3975 0.157188 12.8132 0.4407 13.1372C0.724211 13.4611 1.1155 13.6714 1.54212 13.729C1.53734 13.8211 1.53734 13.9129 1.54212 14.0043C1.53848 14.4383 1.62253 14.8685 1.78921 15.2693C1.9559 15.67 2.2018 16.0329 2.51216 16.3363C2.81671 16.6533 3.18126 16.9065 3.5846 17.0813C3.98793 17.2561 4.422 17.3489 4.86155 17.3544C5.73882 17.3465 6.57811 16.9953 7.19968 16.3762C7.82069 15.758 8.17354 14.9204 8.182 14.0442C8.18725 13.9597 8.18725 13.8749 8.182 13.7904H13.8191C13.8138 13.8749 13.8138 13.9597 13.8191 14.0442C13.8153 14.4784 13.8993 14.9088 14.066 15.3097C14.2327 15.7106 14.4787 16.0737 14.7891 16.3772C15.0939 16.6944 15.4588 16.9478 15.8625 17.1226C16.2662 17.2974 16.7007 17.3901 17.1406 17.3953C18.0178 17.3874 18.8571 17.0362 19.4787 16.4171C20.0993 15.7988 20.4518 14.9612 20.46 14.0851C20.4653 14.0003 20.4653 13.9152 20.46 13.8303H21.2336C21.4354 13.8275 21.6282 13.7462 21.7713 13.6037C21.9143 13.4613 21.9963 13.2688 22 13.067V10.1241C22 9.21342 21.7452 8.32115 21.2653 7.54655ZM6.63894 14.0033C6.63924 14.2372 6.59237 14.4687 6.50112 14.6841C6.40987 14.8995 6.27612 15.0943 6.10787 15.2568C5.76745 15.5802 5.31579 15.7606 4.8462 15.7606C4.37661 15.7606 3.92495 15.5802 3.58453 15.2568C3.4186 15.0912 3.28721 14.8943 3.19797 14.6775C3.10874 14.4608 3.06345 14.2285 3.06472 13.9941C3.05991 13.752 3.10884 13.5119 3.20797 13.2911C3.34304 12.9708 3.57532 12.7007 3.87104 12.5165C4.1735 12.3166 4.52978 12.2138 4.89225 12.2218C5.23811 12.2218 5.57578 12.3241 5.86229 12.5165C6.15596 12.7037 6.38722 12.9729 6.5274 13.2911C6.62768 13.5111 6.68089 13.7515 6.67987 13.9941L6.63894 14.0033ZM9.95837 8.91156H4.85234C4.58202 8.9113 4.32278 8.80407 4.13125 8.61331C3.93972 8.42255 3.83146 8.16375 3.83011 7.89343C3.82984 7.75934 3.85608 7.62652 3.90733 7.50262C3.95858 7.37871 4.03383 7.26616 4.12874 7.17144C4.22364 7.07673 4.33634 7.00171 4.46035 6.95071C4.58436 6.89971 4.71723 6.87373 4.85132 6.87427H9.95837C10.2287 6.87481 10.4878 6.98229 10.6792 7.17325C10.8705 7.3642 10.9785 7.62311 10.9796 7.89343C10.9797 8.02743 10.9534 8.16014 10.9021 8.28392C10.8507 8.40771 10.7755 8.52014 10.6806 8.61475C10.5857 8.70936 10.473 8.78429 10.3491 8.83522C10.2252 8.88616 10.0924 8.9121 9.95837 8.91156ZM9.95837 5.40795H4.85234C4.58202 5.40768 4.32278 5.30046 4.13125 5.1097C3.93972 4.91893 3.83146 4.66013 3.83011 4.38981C3.82997 4.25581 3.85632 4.12311 3.90763 3.99932C3.95894 3.87553 4.0342 3.7631 4.1291 3.66849C4.22399 3.57388 4.33665 3.49896 4.46059 3.44802C4.58453 3.39708 4.71732 3.37114 4.85132 3.37168H9.95837C10.2285 3.37221 10.4875 3.47956 10.6788 3.67029C10.8701 3.86102 10.9782 4.11967 10.9796 4.38981C10.9797 4.52381 10.9534 4.65652 10.9021 4.78031C10.8507 4.9041 10.7755 5.01652 10.6806 5.11113C10.5857 5.20574 10.473 5.28067 10.3491 5.33161C10.2252 5.38254 10.0924 5.40849 9.95837 5.40795ZM18.8955 14.0033C18.8956 14.2372 18.8486 14.4689 18.7572 14.6842C18.6657 14.8996 18.5318 15.0943 18.3634 15.2568C18.023 15.5799 17.5716 15.7601 17.1022 15.7601C16.6329 15.7601 16.1814 15.5799 15.841 15.2568C15.6749 15.0913 15.5433 14.8944 15.4539 14.6777C15.3645 14.4609 15.3191 14.2285 15.3202 13.9941C15.3159 13.623 15.4346 13.261 15.6579 12.9647C15.9096 12.6301 16.2708 12.3916 16.6791 12.2924H16.9349C16.9817 12.2813 17.0304 12.2813 17.0771 12.2924H17.2818C17.5918 12.3282 17.8875 12.4438 18.1393 12.629C18.392 12.8142 18.5895 13.0639 18.7113 13.3525C18.8126 13.5725 18.8648 13.8129 18.8648 14.0544L18.8955 14.0033Z" fill="#3391C5"/>
<path d="M17.1003 12.2116C17.0532 12.2003 17.0041 12.2003 16.957 12.2116H17.1003Z" fill="#3391C5"/>
</svg>
