<svg width="22" height="23" viewBox="0 0 22 23" fill="none" xmlns="http://www.w3.org/2000/svg">
<path fill-rule="evenodd" clip-rule="evenodd" d="M11.5114 0.456703C11.1174 -0.152234 10.2264 -0.152234 9.83234 0.456703L8.51547 2.49163C8.25829 2.88903 7.75771 3.05168 7.31607 2.88134L5.0546 2.00909C4.37787 1.74807 3.65707 2.27176 3.69619 2.99603L3.82692 5.41635C3.85245 5.88902 3.54307 6.31484 3.08565 6.43662L0.743384 7.06022C0.0424771 7.24682 -0.232842 8.09417 0.22452 8.65712L1.75291 10.5384C2.05139 10.9058 2.05139 11.4321 1.75291 11.7995L0.224519 13.6807C-0.232842 14.2437 0.0424771 15.091 0.743384 15.2776L3.08565 15.9012C3.54307 16.023 3.85245 16.4488 3.82692 16.9215L3.69619 19.3418C3.65707 20.0661 4.37787 20.5898 5.0546 20.3288L7.31607 19.4565C7.75771 19.2862 8.25829 19.4488 8.51547 19.8462L9.83234 21.8811C10.2264 22.4901 11.1174 22.4901 11.5114 21.8811L12.8283 19.8462C13.0855 19.4488 13.5861 19.2862 14.0277 19.4565L16.2892 20.3288C16.9659 20.5898 17.6867 20.0661 17.6476 19.3418L17.5168 16.9215C17.4913 16.4488 17.8007 16.023 18.2581 15.9012L20.6004 15.2776C21.3013 15.091 21.5766 14.2437 21.1192 13.6807L19.5909 11.7995C19.2924 11.4321 19.2924 10.9058 19.5909 10.5384L21.1192 8.65712C21.5766 8.09417 21.3013 7.24682 20.6004 7.06022L18.2581 6.43662C17.8007 6.31484 17.4913 5.88902 17.5168 5.41635L17.6476 2.99603C17.6867 2.27176 16.9659 1.74807 16.2892 2.00909L14.0277 2.88134C13.586 3.05168 13.0855 2.88903 12.8283 2.49163L11.5114 0.456703ZM14.8051 9.29735C15.098 9.00446 15.098 8.52958 14.8051 8.23669C14.5122 7.9438 14.0373 7.9438 13.7444 8.23669L9.47093 12.5102L7.59935 10.6386C7.30646 10.3457 6.83158 10.3457 6.53869 10.6386C6.2458 10.9315 6.2458 11.4064 6.53869 11.6993L8.58704 13.7476C9.0752 14.2358 9.86666 14.2358 10.3548 13.7476L14.8051 9.29735Z" fill="#3391C5"/>
</svg>
