<svg width="1846" height="540" viewBox="0 0 1846 540" fill="none" xmlns="http://www.w3.org/2000/svg">
<g clip-path="url(#clip0_2054_374)" filter="url(#filter0_d_2054_374)">
<rect width="1760" height="454" transform="translate(43 43)" fill="url(#paint0_radial_2054_374)"/>
<path fill-rule="evenodd" clip-rule="evenodd" d="M1390.08 319.569C1411.67 347.012 1481.66 398.057 1591.2 387.164C1595.45 386.742 1599.73 388.056 1602.73 391.099C1634.92 423.78 1683.12 499.125 1650.16 574.817C1662.57 564.447 1694.44 542.045 1722.62 535.384C1722.91 480.297 1670.87 375.413 1633.44 323.011C1630.17 318.436 1626.51 311.673 1623.05 303.892C1620.7 298.588 1618.76 293.118 1617.27 287.549C1729.58 415.797 1738.86 457.971 1746.14 491.017C1747.42 496.826 1748.63 502.353 1750.34 508.015L1772.28 493.907C1734.62 385.846 1660.27 318.532 1615.85 281.534C1612.1 263.396 1613.15 244.5 1620.1 227.161C1638.27 181.833 1687.36 122.607 1802.92 97.0783C1754.74 80.6972 1640.25 63.6537 1528.02 107.562C1521.08 110.275 1513.14 107.55 1509.26 101.188C1458.73 18.2274 1388.88 -11.5966 1355.76 -18.7815C1417.75 8.21454 1464.48 70.2387 1486.96 110.319C1490.86 117.268 1486.89 126.555 1479.78 122.951C1477.13 121.61 1474.85 119.5 1473.32 116.732C1462.21 96.618 1443.6 65.9893 1423.88 42.4362C1403.1 17.6094 1355.76 -18.7809 1283.59 -34.4373C1289.58 -27.7938 1296.14 -21.0274 1302.97 -13.9824C1336.94 21.0598 1377.59 62.9968 1388.5 131.011C1390.2 141.632 1379.36 149.253 1369.49 144.954L1321.03 123.853L1319.47 123.17C1300.15 114.746 1279.2 105.61 1259.51 112.775C1248.59 116.747 1237.91 124.867 1231.32 139.998C1228.55 146.354 1226.63 160.146 1233.92 175.636C1236.28 180.662 1240.52 185.194 1244.63 189.601C1251.75 197.225 1258.53 204.478 1254.7 213.282C1261.72 203.195 1280.33 183.43 1298.58 185.066C1312.07 186.276 1328.95 195.138 1332.64 215.677C1335.72 232.79 1348.51 269.916 1390.08 319.569ZM1470.53 166.744C1511.47 130.419 1603.86 76.5029 1718.34 91.7937C1677.26 93.9472 1579.73 104.942 1493.69 188.488C1486.81 195.173 1475.58 194.915 1469.42 187.551C1464.19 181.312 1464.45 172.14 1470.53 166.744ZM1258.74 167.719C1266.08 170.912 1274.61 167.564 1277.8 160.241C1280.98 152.917 1277.63 144.391 1270.29 141.197C1262.96 138.003 1254.43 141.351 1251.24 148.675C1248.05 155.998 1251.41 164.525 1258.74 167.719Z" fill="#3292C5" fill-opacity="0.1"/>
</g>
<defs>
<filter id="filter0_d_2054_374" x="0" y="0" width="1846" height="540" filterUnits="userSpaceOnUse" color-interpolation-filters="sRGB">
<feFlood flood-opacity="0" result="BackgroundImageFix"/>
<feColorMatrix in="SourceAlpha" type="matrix" values="0 0 0 0 0 0 0 0 0 0 0 0 0 0 0 0 0 0 127 0" result="hardAlpha"/>
<feMorphology radius="3" operator="dilate" in="SourceAlpha" result="effect1_dropShadow_2054_374"/>
<feOffset/>
<feGaussianBlur stdDeviation="20"/>
<feComposite in2="hardAlpha" operator="out"/>
<feColorMatrix type="matrix" values="0 0 0 0 0 0 0 0 0 0 0 0 0 0 0 0 0 0 0.15 0"/>
<feBlend mode="normal" in2="BackgroundImageFix" result="effect1_dropShadow_2054_374"/>
<feBlend mode="normal" in="SourceGraphic" in2="effect1_dropShadow_2054_374" result="shape"/>
</filter>
<radialGradient id="paint0_radial_2054_374" cx="0" cy="0" r="1" gradientUnits="userSpaceOnUse" gradientTransform="translate(1458.5 227) rotate(180) scale(1458.5 3237.22)">
<stop stop-color="#F6FBFF"/>
<stop offset="1" stop-color="#E6F0F8"/>
</radialGradient>
<clipPath id="clip0_2054_374">
<rect width="1760" height="454" fill="white" transform="translate(43 43)"/>
</clipPath>
</defs>
</svg>
