<svg width="80" height="60" viewBox="0 0 80 60" fill="none" xmlns="http://www.w3.org/2000/svg">
<mask id="mask0_2054_306" style="mask-type:alpha" maskUnits="userSpaceOnUse" x="0" y="0" width="80" height="60">
<path d="M55.5891 60L50.0302 51.6C58.4089 45.84 63.4038 38.56 65.0151 29.76C63.5649 30.4 61.8731 30.72 59.9396 30.72C55.428 30.72 51.7221 29.28 48.8217 26.4C45.9214 23.52 44.4713 19.84 44.4713 15.36C44.4713 10.72 46.002 7.04 49.0634 4.32C52.1249 1.44 55.9919 0 60.6646 0C66.3041 0 70.8963 1.84 74.4411 5.52C78.147 9.2 80 14.48 80 21.36C80 28.72 77.8248 36 73.4743 43.2C69.285 50.24 63.3233 55.84 55.5891 60ZM11.1178 60L5.55891 51.6C13.9376 45.84 18.9325 38.56 20.5438 29.76C19.0937 30.4 17.4018 30.72 15.4683 30.72C10.9567 30.72 7.25076 29.28 4.35045 26.4C1.45015 23.52 0 19.84 0 15.36C0 10.72 1.53072 7.04 4.59215 4.32C7.65357 1.44 11.5206 0 16.1934 0C21.8328 0 26.425 1.84 29.9698 5.52C33.6757 9.2 35.5287 14.48 35.5287 21.36C35.5287 28.72 33.3535 36 29.003 43.2C24.8137 50.24 18.852 55.84 11.1178 60Z" fill="#E6F0F8"/>
</mask>
<g mask="url(#mask0_2054_306)">
<rect y="10" width="80" height="50" fill="#E6F0F8"/>
</g>
</svg>
