<svg width="24" height="28" viewBox="0 0 24 28" fill="none" xmlns="http://www.w3.org/2000/svg">
<path d="M15.2395 20.8694L17.5415 23.1303L22.4996 18.2607L23.7392 19.4781L17.5415 25.5651L14 22.0868L15.2395 20.8694Z" fill="#3391C5"/>
<path fill-rule="evenodd" clip-rule="evenodd" d="M14.8309 28.0001C12.8626 26.6915 11.5654 24.4538 11.5653 21.9131H3.65189C1.97101 21.9131 0.608398 23.2757 0.608398 24.9566C0.608398 26.6374 1.97102 28.0001 3.65189 28.0001H14.8309Z" fill="#3391C5"/>
<path fill-rule="evenodd" clip-rule="evenodd" d="M0 2C0 0.895431 0.895431 0 2 0H3.04371V8.52176L5.4785 6.08697L7.91329 8.52176V0H22.5218V15.5857C21.4474 14.9642 20.2001 14.6085 18.8697 14.6085C15.2503 14.6085 12.2458 17.241 11.6663 20.6957H3.0715C1.93518 20.6957 0.896391 21.3377 0.388215 22.3541L0 23.1305V2Z" fill="#3391C5"/>
</svg>
