<svg width="18" height="20" viewBox="0 0 18 20" fill="none" xmlns="http://www.w3.org/2000/svg">
<path fill-rule="evenodd" clip-rule="evenodd" d="M2 6H16V18C16 19.1046 15.1046 20 14 20H4C2.89543 20 2 19.1046 2 18V6ZM7 8.25C7.41421 8.25 7.75 8.58579 7.75 9V15C7.75 15.4142 7.41421 15.75 7 15.75C6.58579 15.75 6.25 15.4142 6.25 15V9C6.25 8.58579 6.58579 8.25 7 8.25ZM11.75 9C11.75 8.58579 11.4142 8.25 11 8.25C10.5858 8.25 10.25 8.58579 10.25 9V15C10.25 15.4142 10.5858 15.75 11 15.75C11.4142 15.75 11.75 15.4142 11.75 15V9Z" fill="white"/>
<path d="M6 1C6 0.447715 6.44772 0 7 0H11C11.5523 0 12 0.447715 12 1V2H6V1Z" fill="white"/>
<path d="M0 4C0 3.44772 0.447715 3 1 3H17C17.5523 3 18 3.44772 18 4C18 4.55228 17.5523 5 17 5H1C0.447716 5 0 4.55228 0 4Z" fill="white"/>
</svg>
