<svg width="24" height="28" viewBox="0 0 24 28" fill="none" xmlns="http://www.w3.org/2000/svg">
<path d="M23.5731 7.01988C23.277 6.37025 22.8599 5.78952 22.3465 5.31198L18.3465 1.5042C17.4661 0.656899 16.3482 0.131426 15.1599 0.00628522H6.94661C6.06336 -0.03304 5.18148 0.112473 4.3523 0.434355C3.52312 0.756236 2.76319 1.24806 2.11675 1.8812C1.4703 2.51434 0.950241 3.27615 0.586842 4.1223C0.223443 4.96845 0.0239594 5.88204 0 6.80989V21.2291C0.0471673 22.6283 0.492921 23.9806 1.27966 25.1111C2.0664 26.2415 3.15796 27.0983 4.4133 27.5707C5.22944 27.8964 6.1014 28.0395 6.97327 27.9907H17.0532C17.9364 28.03 18.8183 27.8845 19.6475 27.5626C20.4767 27.2407 21.2366 26.7489 21.8831 26.1158C22.5295 25.4826 23.0496 24.7208 23.413 23.8747C23.7764 23.0285 23.9758 22.1149 23.9998 21.1871V9.18976C24.0062 8.44283 23.8608 7.70307 23.5731 7.01988ZM17.1199 18.3312L13.5732 22.069C13.3691 22.2775 13.1293 22.4437 12.8666 22.559C12.6879 22.643 12.5012 22.6943 12.3066 22.713C12.131 22.755 11.9488 22.755 11.7732 22.713C11.5797 22.695 11.3904 22.6429 11.2132 22.559C10.9505 22.4437 10.7107 22.2775 10.5066 22.069L6.95994 18.3312C6.74151 18.0634 6.62737 17.7189 6.64033 17.3666C6.65329 17.0143 6.7924 16.6801 7.02986 16.4308C7.26731 16.1814 7.58563 16.0354 7.9212 16.0218C8.25676 16.0082 8.58486 16.128 8.83993 16.3573L10.7066 18.3172V11.8636C10.7066 11.4923 10.8471 11.1362 11.0971 10.8737C11.3471 10.6112 11.6863 10.4637 12.0399 10.4637C12.3935 10.4637 12.7327 10.6112 12.9827 10.8737C13.2327 11.1362 13.3732 11.4923 13.3732 11.8636V18.3172L15.2399 16.3573C15.4949 16.128 15.823 16.0082 16.1586 16.0218C16.4942 16.0354 16.8125 16.1814 17.0499 16.4308C17.2874 16.6801 17.4265 17.0143 17.4395 17.3666C17.4524 17.7189 17.3383 18.0634 17.1199 18.3312ZM17.4132 7.56585C17.223 7.5677 17.0343 7.52996 16.858 7.45481C16.6818 7.37965 16.5215 7.26858 16.3863 7.128C16.2512 6.98742 16.1439 6.82013 16.0707 6.63577C15.9975 6.45142 15.9599 6.25367 15.9599 6.05394V2.34415C16.3332 2.55694 16.6932 2.79493 17.0399 3.05811L21.0398 6.87989C21.262 7.07681 21.4487 7.30547 21.5998 7.56585H17.4132Z" fill="white"/>
</svg>
