<svg width="28" height="29" viewBox="0 0 28 29" fill="none" xmlns="http://www.w3.org/2000/svg">
<path d="M21.7725 9.89209H26.1751C26.8654 9.89209 27.4251 10.4517 27.4251 11.1421V24.975C27.4251 26.0105 26.5856 26.85 25.5501 26.85H23.6475C22.6119 26.85 21.7725 26.0105 21.7725 24.975V9.89209Z" fill="#3391C5"/>
<path fill-rule="evenodd" clip-rule="evenodd" d="M0.575195 2.5C0.575195 1.11929 1.69448 0 3.0752 0H17.8594C19.2401 0 20.3594 1.11929 20.3594 2.5V11.3055H20.3591V26.3884C20.3591 27.414 21.1825 28.2473 22.2043 28.2632H3.07519C1.69448 28.2632 0.575195 27.1439 0.575195 25.7632V2.5ZM4.81456 8.89231C4.26228 8.89231 3.81456 9.34002 3.81456 9.89231C3.81456 10.4446 4.26228 10.8923 4.81456 10.8923H16.1198C16.6721 10.8923 17.1198 10.4446 17.1198 9.89231C17.1198 9.34002 16.6721 8.89231 16.1198 8.89231H4.81456ZM3.81456 14.1313C3.81456 13.579 4.26228 13.1313 4.81456 13.1313H16.1198C16.6721 13.1313 17.1198 13.579 17.1198 14.1313C17.1198 14.6836 16.6721 15.1313 16.1198 15.1313H4.81456C4.26228 15.1313 3.81456 14.6836 3.81456 14.1313ZM4.81456 17.3709C4.26228 17.3709 3.81456 17.8186 3.81456 18.3709C3.81456 18.9232 4.26228 19.3709 4.81456 19.3709H16.1198C16.6721 19.3709 17.1198 18.9232 17.1198 18.3709C17.1198 17.8186 16.6721 17.3709 16.1198 17.3709H4.81456Z" fill="#3391C5"/>
</svg>
