<svg width="26" height="28" viewBox="0 0 26 28" fill="none" xmlns="http://www.w3.org/2000/svg">
<path fill-rule="evenodd" clip-rule="evenodd" d="M2.27201 2.41556C0.514648 4.17292 0.514648 7.00135 0.514648 12.6582V13.6289C0.514648 19.2858 0.514648 22.1142 2.27201 23.8716C4.02937 25.6289 6.8578 25.6289 12.5147 25.6289H13.4854L13.8918 25.6289V20.7242C13.8918 17.0302 16.8864 14.0356 20.5804 14.0356C22.5144 14.0356 24.2567 14.8564 25.4778 16.1687C25.4854 15.3917 25.4854 14.5476 25.4854 13.6289V12.6582C25.4854 7.00135 25.4854 4.17292 23.728 2.41556C21.9707 0.658203 19.1422 0.658203 13.4854 0.658203H12.5146C6.85779 0.658203 4.02937 0.658203 2.27201 2.41556ZM4.9737 6.45522C4.9737 5.71642 5.57261 5.1175 6.31141 5.1175H19.6886C20.4274 5.1175 21.0263 5.71642 21.0263 6.45522C21.0263 7.19402 20.4274 7.79294 19.6886 7.79294H6.31141C5.57261 7.79294 4.9737 7.19402 4.9737 6.45522ZM6.31141 9.57656C5.57261 9.57656 4.9737 10.1755 4.9737 10.9143C4.9737 11.6531 5.57261 12.252 6.31141 12.252H14.3377C15.0765 12.252 15.6754 11.6531 15.6754 10.9143C15.6754 10.1755 15.0765 9.57656 14.3377 9.57656H6.31141Z" fill="white"/>
<path fill-rule="evenodd" clip-rule="evenodd" d="M15.6953 21.1696C15.6821 21.0228 15.6753 20.8741 15.6753 20.7238C15.6753 18.0149 17.8713 15.8188 20.5803 15.8188C23.2892 15.8188 25.4852 18.0149 25.4852 20.7238C25.4852 20.8741 25.4785 21.0228 25.4652 21.1696H25.4854V27.553C25.4854 27.8914 25.1231 28.1065 24.8259 27.9444L21.0074 25.8616C20.7413 25.7164 20.4195 25.7164 20.1534 25.8616L16.3349 27.9444C16.0377 28.1065 15.6754 27.8914 15.6754 27.553V21.1696H15.6953ZM22.2164 18.9387C22.3995 19.1035 22.4143 19.3854 22.2496 19.5685L20.8085 21.1696L20.4363 21.5832C20.4142 21.6078 20.39 21.6293 20.3643 21.6478C20.1841 21.7769 19.9284 21.7554 19.7734 21.5832L19.4012 21.1696L18.8668 20.5758C18.7021 20.3928 18.7169 20.1108 18.9 19.9461C19.083 19.7814 19.365 19.7962 19.5297 19.9793L20.1049 20.6183L21.5867 18.9719C21.7514 18.7888 22.0334 18.774 22.2164 18.9387Z" fill="white"/>
</svg>
