<svg width="909" height="749" viewBox="0 0 909 749" fill="none" xmlns="http://www.w3.org/2000/svg">
<path d="M798.896 0H113.303C107.184 0 102.184 5.00048 102.184 11.1191V79.2001H810.015V11.1191C810.015 5.00048 805.015 0 798.896 0Z" fill="#B5E5FF"/>
<path d="M139.175 524.895L91.4375 509.956C111.191 446.875 102.836 352.052 102.774 351.09L152.592 346.524C152.996 350.81 161.972 452.186 139.206 524.926L139.175 524.895Z" fill="url(#paint0_linear_2033_726)"/>
<path d="M199.212 609.22L149.518 603.536C155.854 548.003 156.04 511.353 156.537 402.585C156.63 386.31 156.692 368.451 156.816 348.698L206.852 348.977C206.728 368.731 206.666 386.559 206.573 402.833C206.045 513.651 205.889 550.984 199.212 609.251V609.22Z" fill="url(#paint1_linear_2033_726)"/>
<path d="M219.369 648.385C203.622 573.999 210.704 357.177 210.983 347.983L260.988 349.661C260.926 351.866 253.814 569.557 268.318 638.042L219.369 648.385Z" fill="url(#paint2_linear_2033_726)"/>
<path d="M315.093 586.981L265.244 582.695C270.834 517.565 265.244 351.338 265.15 349.66L315.155 347.952C315.404 354.909 320.932 518.869 315.062 586.981H315.093Z" fill="url(#paint3_linear_2033_726)"/>
<path d="M335.095 644.782C314.193 566.234 319.1 357.052 319.317 348.201L369.322 349.443C369.26 351.555 364.322 560.271 383.423 631.923L335.064 644.813L335.095 644.782Z" fill="url(#paint4_linear_2033_726)"/>
<path d="M378.888 609.872C368.98 539.834 373.329 355.996 373.515 348.201L423.52 349.412C423.489 351.276 419.109 536.914 428.427 602.852L378.888 609.841V609.872Z" fill="url(#paint5_linear_2033_726)"/>
<path d="M464.64 644.844L416.344 631.799C430.941 577.726 429.482 409.697 427.68 349.536L477.685 348.045C477.965 357.177 484.145 572.601 464.64 644.844Z" fill="url(#paint6_linear_2033_726)"/>
<path d="M486.663 616.581C474.612 541.356 481.569 355.717 481.879 347.828L531.884 349.754C531.822 351.648 524.803 538.281 536.077 608.661L486.663 616.581Z" fill="url(#paint7_linear_2033_726)"/>
<path d="M586.05 348.822H536.014V562.383H586.05V348.822Z" fill="url(#paint8_linear_2033_726)"/>
<path d="M631.582 618.475L582.943 606.797C598.597 541.542 590.304 351.834 590.242 349.94L640.216 347.704C640.589 355.779 648.912 546.387 631.613 618.475H631.582Z" fill="url(#paint9_linear_2033_726)"/>
<path d="M671.68 654.286C637.205 584.621 643.541 371.961 644.379 347.921L694.384 349.661C692.241 411.437 692.055 582.602 716.529 632.079L671.68 654.255V654.286Z" fill="url(#paint10_linear_2033_726)"/>
<path d="M713.329 611.207C698.7 536.728 698.514 356.462 698.514 348.822H748.55C748.55 350.654 748.705 531.821 762.402 601.579L713.298 611.238L713.329 611.207Z" fill="url(#paint11_linear_2033_726)"/>
<path d="M769.391 535.299C752.899 476.381 752.713 354.009 752.713 348.822H802.749C802.749 350.033 802.935 469.517 817.564 521.82L769.391 535.299Z" fill="url(#paint12_linear_2033_726)"/>
<path d="M375.16 56.0607C369.042 56.0607 362.209 51.4019 359.972 45.7181L350.499 21.6785C348.263 15.9948 341.43 11.3359 335.312 11.3359H160.481C154.363 11.3359 147.53 15.9948 145.293 21.6785L135.821 45.7181C133.584 51.4019 126.751 56.0607 120.633 56.0607H113.334C107.215 56.0607 102.215 61.0612 102.215 67.1798V380.346C102.215 386.465 107.215 391.465 113.334 391.465H798.927C805.046 391.465 810.047 386.465 810.047 380.346V67.1798C810.047 61.0612 805.046 56.0607 798.927 56.0607H375.16Z" fill="url(#paint13_linear_2033_726)"/>
<path d="M166.818 40.2517V31.462H168.34V32.487C168.961 31.6795 169.8 31.2446 170.856 31.2446C171.974 31.2446 172.813 31.6484 173.372 32.4559C173.713 32.9529 173.869 33.7293 173.869 34.8164V40.2517H172.347V34.8475C172.347 34.1331 172.223 33.574 171.943 33.2324C171.632 32.7976 171.136 32.6112 170.514 32.6112C169.893 32.6112 169.334 32.8286 168.961 33.2945C168.527 33.7915 168.34 34.5679 168.34 35.655V40.2517H166.818Z" fill="#5E5E5E"/>
<path d="M184.212 39.1957C183.343 40.0653 182.224 40.5002 180.858 40.5002C179.491 40.5002 178.404 40.0653 177.504 39.1957C176.634 38.3261 176.168 37.2079 176.168 35.8724C176.168 34.5369 176.603 33.4187 177.504 32.5491C178.404 31.6795 179.491 31.2446 180.858 31.2446C182.224 31.2446 183.312 31.6795 184.212 32.5491C185.113 33.4187 185.548 34.5369 185.548 35.8724C185.548 37.2079 185.113 38.295 184.212 39.1957ZM183.094 33.4498C182.504 32.8597 181.759 32.5802 180.889 32.5802C180.019 32.5802 179.305 32.8597 178.684 33.4498C178.094 34.0399 177.783 34.8475 177.783 35.8413C177.783 36.8352 178.094 37.6428 178.684 38.2329C179.305 38.823 180.019 39.1025 180.858 39.1025C181.696 39.1025 182.442 38.823 183.032 38.2329C183.653 37.6428 183.933 36.8663 183.933 35.8413C183.933 34.8164 183.622 34.0089 183.032 33.4187L183.094 33.4498Z" fill="#5E5E5E"/>
<path d="M190.981 32.8596H189.46V40.2516H187.938V32.8596H187.006V31.462H187.938V28.2939H189.46V31.462H190.981V32.8596Z" fill="#5E5E5E"/>
<path d="M201.076 32.8596H198.901V40.2516H197.38V32.8596H196.541V31.462H197.38V27.6107C197.38 26.4304 197.659 25.6229 198.218 25.126C198.684 24.7532 199.243 24.5669 199.989 24.5669C200.361 24.5669 200.734 24.629 201.076 24.7532V26.2441C200.765 26.1198 200.423 26.0577 200.082 26.0577C199.616 26.0577 199.305 26.213 199.119 26.5236C198.995 26.741 198.933 27.1448 198.933 27.797V31.462H201.107V32.8596H201.076Z" fill="#5E5E5E"/>
<path d="M209.898 39.1957C209.028 40.0653 207.91 40.5002 206.543 40.5002C205.177 40.5002 204.09 40.0653 203.189 39.1957C202.319 38.3261 201.854 37.2079 201.854 35.8724C201.854 34.5369 202.288 33.4187 203.189 32.5491C204.09 31.6795 205.177 31.2446 206.543 31.2446C207.91 31.2446 208.997 31.6795 209.898 32.5491C210.798 33.4187 211.233 34.5369 211.233 35.8724C211.233 37.2079 210.798 38.295 209.898 39.1957ZM208.749 33.4498C208.158 32.8597 207.413 32.5802 206.543 32.5802C205.674 32.5802 204.959 32.8597 204.338 33.4498C203.748 34.0399 203.438 34.8475 203.438 35.8413C203.438 36.8352 203.748 37.6428 204.338 38.2329C204.959 38.823 205.674 39.1025 206.512 39.1025C207.351 39.1025 208.096 38.823 208.686 38.2329C209.308 37.6428 209.587 36.8663 209.587 35.8413C209.587 34.8164 209.277 34.0089 208.686 33.4187L208.749 33.4498Z" fill="#5E5E5E"/>
<path d="M215.084 31.4312V36.5559C215.084 37.4566 215.209 38.0778 215.519 38.4505C215.861 38.9163 216.389 39.1338 217.072 39.1338C217.755 39.1338 218.252 38.9163 218.625 38.4505C218.905 38.0778 219.06 37.4566 219.06 36.5559V31.4312H220.582V36.7422C220.582 37.9225 220.302 38.8232 219.774 39.3822C219.091 40.1276 218.19 40.5003 217.072 40.5003C215.954 40.5003 215.084 40.1276 214.37 39.3822C213.842 38.7921 213.562 37.9225 213.562 36.7422V31.4312H215.084Z" fill="#5E5E5E"/>
<path d="M223.439 40.2517V31.462H224.961V32.487C225.583 31.6795 226.421 31.2446 227.477 31.2446C228.595 31.2446 229.434 31.6484 229.993 32.4559C230.335 32.9529 230.49 33.7293 230.49 34.8164V40.2517H228.968V34.8475C228.968 34.1331 228.844 33.574 228.564 33.2324C228.254 32.7976 227.757 32.6112 227.135 32.6112C226.514 32.6112 225.955 32.8286 225.582 33.2945C225.148 33.7915 224.961 34.5679 224.961 35.655V40.2517H223.439Z" fill="#5E5E5E"/>
<path d="M240.148 32.7047V24.7847H241.67V40.252H240.148V39.0096C239.372 40.0035 238.378 40.5005 237.136 40.5005C235.893 40.5005 234.931 40.0967 234.092 39.2581C233.253 38.4506 232.85 37.3014 232.85 35.8106C232.85 34.3197 233.253 33.2327 234.092 32.4251C234.931 31.6176 235.924 31.2139 237.136 31.2139C238.409 31.2139 239.403 31.7108 240.148 32.6736V32.7047ZM237.291 32.5804C236.483 32.5804 235.8 32.86 235.241 33.4501C234.682 34.0402 234.403 34.8167 234.403 35.8416C234.403 36.8666 234.651 37.612 235.179 38.2332C235.707 38.8543 236.39 39.1649 237.291 39.1649C238.192 39.1649 238.906 38.8543 239.434 38.2021C239.962 37.5499 240.242 36.7734 240.242 35.8727C240.242 34.8167 239.931 34.0092 239.341 33.4501C238.751 32.891 238.068 32.6115 237.291 32.6115V32.5804Z" fill="#5E5E5E"/>
<path d="M326.926 39.4756C326.305 40.0968 325.28 40.0968 324.628 39.4756C324.007 38.8544 324.007 37.8295 324.628 37.1772L337.735 24.0704C338.356 23.4492 339.381 23.4492 340.033 24.0704C340.654 24.6916 340.654 25.7165 340.033 26.3687L326.926 39.4756Z" fill="#5E5E5E"/>
<path d="M324.628 26.3687C324.007 25.7476 324.007 24.7226 324.628 24.0704C325.249 23.4492 326.274 23.4492 326.926 24.0704L340.033 37.1772C340.654 37.7984 340.654 38.8233 340.033 39.4756C339.412 40.0968 338.387 40.0968 337.735 39.4756L324.628 26.3687Z" fill="#5E5E5E"/>
<path d="M776.1 39.4756C775.479 40.0968 774.454 40.0968 773.802 39.4756C773.181 38.8544 773.181 37.8295 773.802 37.1772L786.909 24.0704C787.53 23.4492 788.555 23.4492 789.207 24.0704C789.828 24.6916 789.828 25.7165 789.207 26.3687L776.1 39.4756Z" fill="#5E5E5E"/>
<path d="M773.802 26.3687C773.181 25.7476 773.181 24.7226 773.802 24.0704C774.423 23.4492 775.448 23.4492 776.1 24.0704L789.207 37.1772C789.859 37.7984 789.828 38.8233 789.207 39.4756C788.586 40.0968 787.561 40.0968 786.909 39.4756L773.802 26.3687Z" fill="#5E5E5E"/>
<path d="M170.731 83.8281H741.468C743.549 83.8281 745.258 85.5364 745.258 87.6173V125.416C745.258 127.497 743.549 129.205 741.468 129.205H170.731C168.65 129.205 166.941 127.497 166.941 125.416V87.6173C166.941 85.5364 168.65 83.8281 170.731 83.8281Z" fill="#E0F1FC"/>
<path d="M760.229 24.9717H746.594V38.6065H760.229V24.9717Z" stroke="#5E5E5E" stroke-linecap="round" stroke-linejoin="round"/>
<path d="M732.15 38.606H718.516" stroke="#5E5E5E" stroke-linecap="round" stroke-linejoin="round"/>
<path d="M331.057 188.621C327.796 185.36 327.796 180.08 331.057 176.818C334.318 173.557 339.598 173.557 342.86 176.818L387.491 221.419C390.752 224.68 390.752 229.96 387.491 233.252C384.23 236.514 378.95 236.514 375.689 233.252L331.088 188.652L331.057 188.621Z" fill="#5E5E5E"/>
<path d="M387.491 188.621C390.752 185.36 390.752 180.08 387.491 176.818C384.199 173.557 378.95 173.557 375.658 176.818L331.057 221.419C327.796 224.68 327.827 229.96 331.057 233.252C334.318 236.514 339.598 236.514 342.86 233.252L387.491 188.652V188.621Z" fill="#5E5E5E"/>
<path d="M524.71 188.621C521.448 185.36 521.448 180.08 524.71 176.818C528.002 173.557 533.251 173.557 536.543 176.818L581.144 221.419C584.405 224.68 584.374 229.96 581.144 233.252C577.882 236.514 572.602 236.514 569.341 233.252L524.71 188.652V188.621Z" fill="#5E5E5E"/>
<path d="M581.112 188.621C584.373 185.36 584.373 180.08 581.112 176.818C577.851 173.557 572.571 173.557 569.31 176.818L524.678 221.419C521.417 224.68 521.417 229.96 524.678 233.252C527.939 236.514 533.22 236.514 536.481 233.252L581.081 188.652L581.112 188.621Z" fill="#5E5E5E"/>
<path d="M487.625 276.952C492.253 276.952 495.98 273.225 495.98 268.597C495.98 263.969 492.253 260.242 487.656 260.242H424.576C419.948 260.242 416.221 264 416.221 268.628C416.221 273.225 419.948 276.952 424.576 276.983H487.656L487.625 276.952Z" fill="#5E5E5E"/>
<path d="M791.753 94.481C791.753 95.7544 790.728 96.8104 789.423 96.8104H762.775C761.501 96.8104 760.445 95.7854 760.445 94.481C760.445 93.2076 761.47 92.1826 762.775 92.1826H789.423C790.697 92.1826 791.753 93.2076 791.753 94.481Z" fill="#8F8F8F"/>
<path d="M791.753 106.533C791.753 107.806 790.728 108.862 789.423 108.862H762.775C761.501 108.862 760.445 107.837 760.445 106.533C760.445 105.259 761.47 104.203 762.775 104.203H789.423C790.697 104.203 791.753 105.228 791.753 106.533Z" fill="#8F8F8F"/>
<path d="M791.753 118.583C791.753 119.856 790.728 120.912 789.423 120.912H762.775C761.501 120.912 760.445 119.887 760.445 118.583C760.445 117.309 761.47 116.284 762.775 116.284H789.423C790.697 116.284 791.753 117.309 791.753 118.583Z" fill="#8F8F8F"/>
<path d="M158.369 101.997C157.623 101.345 156.474 101.376 155.822 102.122L154.083 104.016C153.399 96.003 146.659 89.667 138.46 89.667C129.795 89.667 122.744 96.7174 122.744 105.383C122.744 114.048 129.795 121.099 138.46 121.099C139.454 121.099 140.261 120.291 140.261 119.297C140.261 118.303 139.454 117.496 138.46 117.496C131.782 117.496 126.378 112.06 126.378 105.414C126.378 98.7672 131.813 93.3319 138.46 93.3319C144.703 93.3319 149.827 98.115 150.418 104.234L148.523 102.525C147.778 101.842 146.628 101.904 145.976 102.65C145.293 103.395 145.355 104.513 146.1 105.196L151.256 109.886C151.598 110.197 152.033 110.352 152.467 110.352C152.467 110.352 152.53 110.352 152.561 110.352C153.027 110.352 153.492 110.104 153.803 109.762L158.493 104.606C159.176 103.861 159.114 102.712 158.369 102.059V101.997Z" fill="#8F8F8F"/>
<path opacity="0.5" d="M803.027 718.857C802.344 722.77 798.648 725.938 794.734 725.938H111.066C107.184 725.938 103.457 722.77 102.774 718.857L44.942 384.632C44.0102 379.228 46.9919 374.818 51.5886 374.818H854.243C858.84 374.818 861.821 379.228 860.89 384.632L803.058 718.888L803.027 718.857Z" fill="white"/>
<g style="mix-blend-mode:multiply">
<path d="M854.212 374.818H51.5573C46.9606 374.818 43.979 379.228 44.9107 384.632L55.2533 444.452H850.485L860.827 384.632C861.759 379.228 858.777 374.818 854.181 374.818H854.212Z" fill="#D9D9D9"/>
</g>
<path d="M867.722 305.309H41.2769C36.6798 305.309 32.9531 309.035 32.9531 313.632V399.821C32.9531 404.418 36.6798 408.145 41.2769 408.145H867.722C872.32 408.145 876.046 404.418 876.046 399.821V313.632C876.046 309.035 872.32 305.309 867.722 305.309Z" fill="#AED948"/>
<path d="M68.1429 390.565C68.1429 394.416 65.037 397.522 61.1857 397.522C57.3344 397.522 54.2285 394.416 54.2285 390.565V322.95C54.2285 319.099 57.3344 315.993 61.1857 315.993C65.037 315.993 68.1429 319.099 68.1429 322.95V390.565Z" fill="#97BD3F"/>
<path d="M114.42 390.565C114.42 394.416 111.314 397.522 107.463 397.522C103.612 397.522 100.506 394.416 100.506 390.565V322.95C100.506 319.099 103.612 315.993 107.463 315.993C111.314 315.993 114.42 319.099 114.42 322.95V390.565Z" fill="#97BD3F"/>
<path d="M160.698 390.565C160.698 394.416 157.592 397.522 153.74 397.522C149.889 397.522 146.783 394.416 146.783 390.565V322.95C146.783 319.099 149.889 315.993 153.74 315.993C157.592 315.993 160.698 319.099 160.698 322.95V390.565Z" fill="#97BD3F"/>
<path d="M206.946 390.565C206.946 394.416 203.84 397.522 199.988 397.522C196.137 397.522 193.031 394.416 193.031 390.565V322.95C193.031 319.099 196.137 315.993 199.988 315.993C203.84 315.993 206.946 319.099 206.946 322.95V390.565Z" fill="#97BD3F"/>
<path d="M253.223 390.565C253.223 394.416 250.117 397.522 246.266 397.522C242.414 397.522 239.309 394.416 239.309 390.565V322.95C239.309 319.099 242.414 315.993 246.266 315.993C250.117 315.993 253.223 319.099 253.223 322.95V390.565Z" fill="#97BD3F"/>
<path d="M299.5 390.565C299.5 394.416 296.394 397.522 292.543 397.522C288.692 397.522 285.586 394.416 285.586 390.565V322.95C285.586 319.099 288.692 315.993 292.543 315.993C296.394 315.993 299.5 319.099 299.5 322.95V390.565Z" fill="#97BD3F"/>
<path d="M345.778 390.565C345.778 394.416 342.672 397.522 338.82 397.522C334.969 397.522 331.863 394.416 331.863 390.565V322.95C331.863 319.099 334.969 315.993 338.82 315.993C342.672 315.993 345.778 319.099 345.778 322.95V390.565Z" fill="#97BD3F"/>
<path d="M392.026 390.565C392.026 394.416 388.92 397.522 385.069 397.522C381.217 397.522 378.111 394.416 378.111 390.565V322.95C378.111 319.099 381.217 315.993 385.069 315.993C388.92 315.993 392.026 319.099 392.026 322.95V390.565Z" fill="#97BD3F"/>
<path d="M438.303 390.565C438.303 394.416 435.197 397.522 431.346 397.522C427.495 397.522 424.389 394.416 424.389 390.565V322.95C424.389 319.099 427.495 315.993 431.346 315.993C435.197 315.993 438.303 319.099 438.303 322.95V390.565Z" fill="#97BD3F"/>
<path d="M484.58 390.565C484.58 394.416 481.475 397.522 477.623 397.522C473.772 397.522 470.666 394.416 470.666 390.565V322.95C470.666 319.099 473.772 315.993 477.623 315.993C481.475 315.993 484.58 319.099 484.58 322.95V390.565Z" fill="#97BD3F"/>
<path d="M530.858 390.565C530.858 394.416 527.752 397.522 523.901 397.522C520.049 397.522 516.943 394.416 516.943 390.565V322.95C516.943 319.099 520.049 315.993 523.901 315.993C527.752 315.993 530.858 319.099 530.858 322.95V390.565Z" fill="#97BD3F"/>
<path d="M577.104 390.565C577.104 394.416 573.998 397.522 570.147 397.522C566.295 397.522 563.189 394.416 563.189 390.565V322.95C563.189 319.099 566.295 315.993 570.147 315.993C573.998 315.993 577.104 319.099 577.104 322.95V390.565Z" fill="#97BD3F"/>
<path d="M623.383 390.565C623.383 394.416 620.277 397.522 616.426 397.522C612.575 397.522 609.469 394.416 609.469 390.565V322.95C609.469 319.099 612.575 315.993 616.426 315.993C620.277 315.993 623.383 319.099 623.383 322.95V390.565Z" fill="#97BD3F"/>
<path d="M669.66 390.565C669.66 394.416 666.555 397.522 662.703 397.522C658.852 397.522 655.746 394.416 655.746 390.565V322.95C655.746 319.099 658.852 315.993 662.703 315.993C666.555 315.993 669.66 319.099 669.66 322.95V390.565Z" fill="#97BD3F"/>
<path d="M715.938 390.565C715.938 394.416 712.832 397.522 708.981 397.522C705.129 397.522 702.023 394.416 702.023 390.565V322.95C702.023 319.099 705.129 315.993 708.981 315.993C712.832 315.993 715.938 319.099 715.938 322.95V390.565Z" fill="#97BD3F"/>
<path d="M762.184 390.565C762.184 394.416 759.078 397.522 755.227 397.522C751.375 397.522 748.27 394.416 748.27 390.565V322.95C748.27 319.099 751.375 315.993 755.227 315.993C759.078 315.993 762.184 319.099 762.184 322.95V390.565Z" fill="#97BD3F"/>
<path d="M808.461 390.565C808.461 394.416 805.355 397.522 801.504 397.522C797.653 397.522 794.547 394.416 794.547 390.565V322.95C794.547 319.099 797.653 315.993 801.504 315.993C805.355 315.993 808.461 319.099 808.461 322.95V390.565Z" fill="#97BD3F"/>
<path d="M854.741 390.565C854.741 394.416 851.635 397.522 847.783 397.522C843.932 397.522 840.826 394.416 840.826 390.565V322.95C840.826 319.099 843.932 315.993 847.783 315.993C851.635 315.993 854.741 319.099 854.741 322.95V390.565Z" fill="#97BD3F"/>
<path d="M909 725.938H0V748.332H909V725.938Z" fill="#3899CF"/>
<defs>
<linearGradient id="paint0_linear_2033_726" x1="123.024" y1="645.279" x2="123.024" y2="413.145" gradientUnits="userSpaceOnUse">
<stop stop-color="white"/>
<stop offset="1" stop-color="#BBDBF0"/>
</linearGradient>
<linearGradient id="paint1_linear_2033_726" x1="178.185" y1="645.279" x2="178.185" y2="413.145" gradientUnits="userSpaceOnUse">
<stop stop-color="white"/>
<stop offset="1" stop-color="#BBDBF0"/>
</linearGradient>
<linearGradient id="paint2_linear_2033_726" x1="238.75" y1="645.279" x2="238.75" y2="413.145" gradientUnits="userSpaceOnUse">
<stop stop-color="white"/>
<stop offset="1" stop-color="#BBDBF0"/>
</linearGradient>
<linearGradient id="paint3_linear_2033_726" x1="291.457" y1="645.279" x2="291.457" y2="413.145" gradientUnits="userSpaceOnUse">
<stop stop-color="white"/>
<stop offset="1" stop-color="#BBDBF0"/>
</linearGradient>
<linearGradient id="paint4_linear_2033_726" x1="351.06" y1="645.279" x2="351.06" y2="413.145" gradientUnits="userSpaceOnUse">
<stop stop-color="white"/>
<stop offset="1" stop-color="#BBDBF0"/>
</linearGradient>
<linearGradient id="paint5_linear_2033_726" x1="400.412" y1="645.279" x2="400.412" y2="413.145" gradientUnits="userSpaceOnUse">
<stop stop-color="white"/>
<stop offset="1" stop-color="#BBDBF0"/>
</linearGradient>
<linearGradient id="paint6_linear_2033_726" x1="447.589" y1="645.279" x2="447.589" y2="413.145" gradientUnits="userSpaceOnUse">
<stop stop-color="white"/>
<stop offset="1" stop-color="#BBDBF0"/>
</linearGradient>
<linearGradient id="paint7_linear_2033_726" x1="507.845" y1="645.279" x2="507.845" y2="413.145" gradientUnits="userSpaceOnUse">
<stop stop-color="white"/>
<stop offset="1" stop-color="#BBDBF0"/>
</linearGradient>
<linearGradient id="paint8_linear_2033_726" x1="561.047" y1="645.279" x2="561.047" y2="413.145" gradientUnits="userSpaceOnUse">
<stop stop-color="white"/>
<stop offset="1" stop-color="#BBDBF0"/>
</linearGradient>
<linearGradient id="paint9_linear_2033_726" x1="612.729" y1="645.279" x2="612.729" y2="413.145" gradientUnits="userSpaceOnUse">
<stop stop-color="white"/>
<stop offset="1" stop-color="#BBDBF0"/>
</linearGradient>
<linearGradient id="paint10_linear_2033_726" x1="679.973" y1="645.279" x2="679.973" y2="413.145" gradientUnits="userSpaceOnUse">
<stop stop-color="white"/>
<stop offset="1" stop-color="#BBDBF0"/>
</linearGradient>
<linearGradient id="paint11_linear_2033_726" x1="730.473" y1="645.279" x2="730.473" y2="413.145" gradientUnits="userSpaceOnUse">
<stop stop-color="white"/>
<stop offset="1" stop-color="#BBDBF0"/>
</linearGradient>
<linearGradient id="paint12_linear_2033_726" x1="785.138" y1="645.279" x2="785.138" y2="413.145" gradientUnits="userSpaceOnUse">
<stop stop-color="white"/>
<stop offset="1" stop-color="#BBDBF0"/>
</linearGradient>
<linearGradient id="paint13_linear_2033_726" x1="456.1" y1="320.092" x2="456.1" y2="384.446" gradientUnits="userSpaceOnUse">
<stop stop-color="white"/>
<stop offset="1" stop-color="#BBDBF0"/>
</linearGradient>
</defs>
</svg>
